{
  "accessors": [
    {
      "bufferView": 0,
      "byteOffset": 0,
      "componentType": 5126,
      "count": 8,
      "max": [
        0.9,
        1.0,
        1.0
      ],
      "min": [
        -0.9,
        -1.0,
        -1.0
      ],
      "type": "VEC3"
    },
    {
      "bufferView": 1,
      "byteOffset": 0,
      "componentType": 5125,
      "count": 36,
      "max": [
        7
      ],
      "min": [
        0
      ],
      "type": "SCALAR"
    },
    {
      "bufferView": 2,
      "byteOffset": 0,
      "componentType": 5126,
      "count": 8,
      "max": [
        0.9,
        1.0,
        1.0
      ],
      "min": [
        -0.9,
        -1.0,
        -1.0
      ],
      "type": "VEC3"
    },
    {
      "bufferView": 3,
      "byteOffset": 0,
      "componentType": 5125,
      "count": 36,
      "max": [
        7
      ],
      "min": [
        0
      ],
      "type": "SCALAR"
    },
    {
      "bufferView": 4,
      "byteOffset": 0,
      "componentType": 5126,
      "count": 8,
      "max": [
        8.5,
        5.5,
        4.0
      ],
      "min": [
        -8.5,
        -5.5,
        -4.0
      ],
      "type": "VEC3"
    },
    {
      "bufferView": 5,
      "byteOffset": 0,
      "componentType": 5125,
      "count": 36,
      "max": [
        7
      ],
      "min": [
        0
      ],
      "type": "SCALAR"
    },
    {
      "bufferView": 6,
      "byteOffset": 0,
      "componentType": 5126,
      "count": 8,
      "max": [
        0.9,
        1.0,
        1.0
      ],
      "min": [
        -0.9,
        -1.0,
        -1.0
      ],
      "type": "VEC3"
    },
    {
      "bufferView": 7,
      "byteOffset": 0,
      "componentType": 5125,
      "count": 36,
      "max": [
        7
      ],
      "min": [
        0
      ],
      "type": "SCALAR"
    },
    {
      "bufferView": 8,
      "byteOffset": 0,
      "componentType": 5126,
      "count": 8,
      "max": [
        0.9,
        1.0,
        1.0
      ],
      "min": [
        -0.9,
        -1.0,
        -1.0
      ],
      "type": "VEC3"
    },
    {
      "bufferView": 9,
      "byteOffset": 0,
      "componentType": 5125,
      "count": 36,
      "max": [
        7
      ],
      "min": [
        0
      ],
      "type": "SCALAR"
    },
    {
      "bufferView": 10,
      "byteOffset": 0,
      "componentType": 5126,
      "count": 2,
      "max": [
        -5.7,
        0.0,
        0.0
      ],
      "min": [
        -6.1,
        0.0,
        0.0
      ],
      "type": "VEC3"
    },
    {
      "bufferView": 11,
      "byteOffset": 0,
      "componentType": 5126,
      "count": 9,
      "max": [
        -5.7,
        0.17500000000000002,
        0.17500000000000002
      ],
      "min": [
        -5.86,
        -0.17500000000000002,
        -0.17500000000000002
      ],
      "type": "VEC3"
    },
    {
      "bufferView": 12,
      "byteOffset": 0,
      "componentType": 5125,
      "count": 42,
      "max": [
        8
      ],
      "min": [
        0
      ],
      "type": "SCALAR"
    },
    {
      "bufferView": 13,
      "byteOffset": 0,
      "componentType": 5126,
      "count": 2,
      "max": [
        -2.7,
        0.0,
        0.0
      ],
      "min": [
        -3.9,
        0.0,
        0.0
      ],
      "type": "VEC3"
    },
    {
      "bufferView": 14,
      "byteOffset": 0,
      "componentType": 5126,
      "count": 9,
      "max": [
        -2.7,
        0.17500000000000002,
        0.17500000000000002
      ],
      "min": [
        -3.1375,
        -0.17500000000000002,
        -0.17500000000000002
      ],
      "type": "VEC3"
    },
    {
      "bufferView": 15,
      "byteOffset": 0,
      "componentType": 5125,
      "count": 42,
      "max": [
        8
      ],
      "min": [
        0
      ],
      "type": "SCALAR"
    },
    {
      "bufferView": 16,
      "byteOffset": 0,
      "componentType": 5126,
      "count": 2,
      "max": [
        0.9,
        0.0,
        0.0
      ],
      "min": [
        -0.9,
        0.0,
        0.0
      ],
      "type": "VEC3"
    },
    {
      "bufferView": 17,
      "byteOffset": 0,
      "componentType": 5126,
      "count": 9,
      "max": [
        0.9,
        0.17500000000000002,
        0.17500000000000002
      ],
      "min": [
        0.46249999999999997,
        -0.17500000000000002,
        -0.17500000000000002
      ],
      "type": "VEC3"
    },
    {
      "bufferView": 18,
      "byteOffset": 0,
      "componentType": 5125,
      "count": 42,
      "max": [
        8
      ],
      "min": [
        0
      ],
      "type": "SCALAR"
    },
    {
      "bufferView": 19,
      "byteOffset": 0,
      "componentType": 5126,
      "count": 2,
      "max": [
        4.3,
        0.0,
        0.0
      ],
      "min": [
        2.7,
        0.0,
        0.0
      ],
      "type": "VEC3"
    },
    {
      "bufferView": 20,
      "byteOffset": 0,
      "componentType": 5126,
      "count": 9,
      "max": [
        4.3,
        0.17500000000000002,
        0.17500000000000002
      ],
      "min": [
        3.8625,
        -0.17500000000000002,
        -0.17500000000000002
      ],
      "type": "VEC3"
    },
    {
      "bufferView": 21,
      "byteOffset": 0,
      "componentType": 5125,
      "count": 42,
      "max": [
        8
      ],
      "min": [
        0
      ],
      "type": "SCALAR"
    },
    {
      "bufferView": 22,
      "byteOffset": 0,
      "componentType": 5126,
      "count": 4,
      "max": [
        0.9,
        1.8,
        0.0
      ],
      "min": [
        -2.7,
        0.0,
        -1.8
      ],
      "type": "VEC3"
    },
    {
      "bufferView": 23,
      "byteOffset": 0,
      "componentType": 5126,
      "count": 9,
      "max": [
        1.15,
        0.6187184335382291,
        0.0
      ],
      "min": [
        0.65,
        0.0,
        -0.6187184335382291
      ],
      "type": "VEC3"
    },
    {
      "bufferView": 24,
      "byteOffset": 0,
      "componentType": 5125,
      "count": 42,
      "max": [
        8
      ],
      "min": [
        0
      ],
      "type": "SCALAR"
    },
    {
      "bufferView": 25,
      "byteOffset": 0,
      "componentType": 5126,
      "count": 4,
      "max": [
        4.3,
        0.0,
        2.8
      ],
      "min": [
        0.9,
        -2.6,
        0.0
      ],
      "type": "VEC3"
    },
    {
      "bufferView": 26,
      "byteOffset": 0,
      "componentType": 5126,
      "count": 9,
      "max": [
        4.55,
        0.0,
        0.6281087071082564
      ],
      "min": [
        4.05,
        -0.6084803100111233,
        0.0
      ],
      "type": "VEC3"
    },
    {
      "bufferView": 27,
      "byteOffset": 0,
      "componentType": 5125,
      "count": 42,
      "max": [
        8
      ],
      "min": [
        0
      ],
      "type": "SCALAR"
    },
    {
      "bufferView": 28,
      "byteOffset": 0,
      "componentType": 5126,
      "count": 8,
      "max": [
        0.9,
        1.0,
        1.0
      ],
      "min": [
        -0.9,
        -1.0,
        -1.0
      ],
      "type": "VEC3"
    },
    {
      "bufferView": 29,
      "byteOffset": 0,
      "componentType": 5125,
      "count": 36,
      "max": [
        7
      ],
      "min": [
        0
      ],
      "type": "SCALAR"
    }
  ],
  "asset": {
    "extras": {
      "schemaVersion": "nndv-scene-gltf-1"
    },
    "generator": "NN_DaVinci Scene IR 1.0 deterministic exporter",
    "version": "2.0"
  },
  "bufferViews": [
    {
      "buffer": 0,
      "byteLength": 96,
      "byteOffset": 0,
      "target": 34962
    },
    {
      "buffer": 0,
      "byteLength": 144,
      "byteOffset": 96,
      "target": 34963
    },
    {
      "buffer": 0,
      "byteLength": 96,
      "byteOffset": 240,
      "target": 34962
    },
    {
      "buffer": 0,
      "byteLength": 144,
      "byteOffset": 336,
      "target": 34963
    },
    {
      "buffer": 0,
      "byteLength": 96,
      "byteOffset": 480,
      "target": 34962
    },
    {
      "buffer": 0,
      "byteLength": 144,
      "byteOffset": 576,
      "target": 34963
    },
    {
      "buffer": 0,
      "byteLength": 96,
      "byteOffset": 720,
      "target": 34962
    },
    {
      "buffer": 0,
      "byteLength": 144,
      "byteOffset": 816,
      "target": 34963
    },
    {
      "buffer": 0,
      "byteLength": 96,
      "byteOffset": 960,
      "target": 34962
    },
    {
      "buffer": 0,
      "byteLength": 144,
      "byteOffset": 1056,
      "target": 34963
    },
    {
      "buffer": 0,
      "byteLength": 24,
      "byteOffset": 1200,
      "target": 34962
    },
    {
      "buffer": 0,
      "byteLength": 108,
      "byteOffset": 1224,
      "target": 34962
    },
    {
      "buffer": 0,
      "byteLength": 168,
      "byteOffset": 1332,
      "target": 34963
    },
    {
      "buffer": 0,
      "byteLength": 24,
      "byteOffset": 1500,
      "target": 34962
    },
    {
      "buffer": 0,
      "byteLength": 108,
      "byteOffset": 1524,
      "target": 34962
    },
    {
      "buffer": 0,
      "byteLength": 168,
      "byteOffset": 1632,
      "target": 34963
    },
    {
      "buffer": 0,
      "byteLength": 24,
      "byteOffset": 1800,
      "target": 34962
    },
    {
      "buffer": 0,
      "byteLength": 108,
      "byteOffset": 1824,
      "target": 34962
    },
    {
      "buffer": 0,
      "byteLength": 168,
      "byteOffset": 1932,
      "target": 34963
    },
    {
      "buffer": 0,
      "byteLength": 24,
      "byteOffset": 2100,
      "target": 34962
    },
    {
      "buffer": 0,
      "byteLength": 108,
      "byteOffset": 2124,
      "target": 34962
    },
    {
      "buffer": 0,
      "byteLength": 168,
      "byteOffset": 2232,
      "target": 34963
    },
    {
      "buffer": 0,
      "byteLength": 48,
      "byteOffset": 2400,
      "target": 34962
    },
    {
      "buffer": 0,
      "byteLength": 108,
      "byteOffset": 2448,
      "target": 34962
    },
    {
      "buffer": 0,
      "byteLength": 168,
      "byteOffset": 2556,
      "target": 34963
    },
    {
      "buffer": 0,
      "byteLength": 48,
      "byteOffset": 2724,
      "target": 34962
    },
    {
      "buffer": 0,
      "byteLength": 108,
      "byteOffset": 2772,
      "target": 34962
    },
    {
      "buffer": 0,
      "byteLength": 168,
      "byteOffset": 2880,
      "target": 34963
    },
    {
      "buffer": 0,
      "byteLength": 96,
      "byteOffset": 3048,
      "target": 34962
    },
    {
      "buffer": 0,
      "byteLength": 144,
      "byteOffset": 3144,
      "target": 34963
    }
  ],
  "buffers": [
    {
      "byteLength": 3288,
      "uri": "data:application/octet-stream;base64,"
    }
  ],
  "cameras": [
    {
      "extras": {
        "nndvProjection": "orthographic",
        "objectId": "scene_camera_resnet_editable_3d_template_camera_isometr_3eb6511c"
      },
      "name": "resnet editable 3D template isometric camera",
      "orthographic": {
        "xmag": 13.5,
        "ymag": 9.0,
        "zfar": 10000.0,
        "znear": 0.1
      },
      "type": "orthographic"
    }
  ],
  "extensions": {
    "KHR_lights_punctual": {
      "lights": [
        {
          "color": [
            1.0,
            1.0,
            1.0
          ],
          "extras": {
            "nndvLight": {
              "color": "#ffffff",
              "direction": [
                -1.0,
                -1.0,
                -1.0
              ],
              "id": "scene_light_resnet_editable_3d_template_light_key_cffd5278",
              "intensity": 1.0,
              "kind": "directional",
              "locked": false,
              "metadata": {},
              "name": "Key light",
              "position": [
                8.0,
                10.0,
                12.0
              ],
              "visible": true
            },
            "objectId": "scene_light_resnet_editable_3d_template_light_key_cffd5278"
          },
          "intensity": 1.0,
          "name": "Key light",
          "type": "directional"
        }
      ]
    }
  },
  "extensionsUsed": [
    "KHR_lights_punctual",
    "KHR_materials_unlit"
  ],
  "materials": [
    {
      "doubleSided": false,
      "extensions": {
        "KHR_materials_unlit": {}
      },
      "extras": {
        "canonicalBaseColor": "#ddd6feff",
        "nndvMaterial": {
          "base_color": "#ddd6fe",
          "face_colors": {
            "front": "#ddd6fe",
            "top": "#ddd6fe"
          },
          "metallic": 0.0,
          "opacity": 1.0,
          "roughness": 0.9,
          "stroke_color": "#334155",
          "stroke_width": 0.8,
          "unlit": true
        }
      },
      "name": "Material scene_object_scene_template_resnet_block_1_100d8293",
      "pbrMetallicRoughness": {
        "baseColorFactor": [
          0.8666667,
          0.8392157,
          0.9960784,
          1.0
        ],
        "metallicFactor": 0.0,
        "roughnessFactor": 0.9
      }
    },
    {
      "doubleSided": false,
      "extensions": {
        "KHR_materials_unlit": {}
      },
      "extras": {
        "canonicalBaseColor": "#c4b5fdff",
        "nndvMaterial": {
          "base_color": "#c4b5fd",
          "face_colors": {
            "front": "#c4b5fd",
            "top": "#c4b5fd"
          },
          "metallic": 0.0,
          "opacity": 1.0,
          "roughness": 0.9,
          "stroke_color": "#334155",
          "stroke_width": 0.8,
          "unlit": true
        }
      },
      "name": "Material scene_object_scene_template_resnet_block_2_de9f3bdf",
      "pbrMetallicRoughness": {
        "baseColorFactor": [
          0.7686275,
          0.7098039,
          0.9921569,
          1.0
        ],
        "metallicFactor": 0.0,
        "roughnessFactor": 0.9
      }
    },
    {
      "doubleSided": false,
      "extensions": {
        "KHR_materials_unlit": {}
      },
      "extras": {
        "canonicalBaseColor": "#f8fafcff",
        "nndvMaterial": {
          "base_color": "#f8fafc",
          "face_colors": {
            "front": "#f8fafc",
            "top": "#f8fafc"
          },
          "metallic": 0.0,
          "opacity": 1.0,
          "roughness": 0.9,
          "stroke_color": "#334155",
          "stroke_width": 0.8,
          "unlit": true
        }
      },
      "name": "Material scene_object_scene_template_resnet_geometry_legend_f43bf7f0",
      "pbrMetallicRoughness": {
        "baseColorFactor": [
          0.972549,
          0.9803922,
          0.9882353,
          1.0
        ],
        "metallicFactor": 0.0,
        "roughnessFactor": 0.9
      }
    },
    {
      "alphaMode": "BLEND",
      "doubleSided": false,
      "extensions": {
        "KHR_materials_unlit": {}
      },
      "extras": {
        "canonicalBaseColor": "#e2e8f0ff",
        "nndvMaterial": {
          "base_color": "#e2e8f0",
          "face_colors": {
            "front": "#e2e8f0",
            "top": "#e2e8f0"
          },
          "metallic": 0.0,
          "opacity": 0.025,
          "roughness": 0.9,
          "stroke_color": "#334155",
          "stroke_width": 0.8,
          "unlit": true
        }
      },
      "name": "Material scene_object_scene_template_resnet_group_frame_ff5969bb",
      "pbrMetallicRoughness": {
        "baseColorFactor": [
          0.8862745,
          0.9098039,
          0.9411765,
          0.025
        ],
        "metallicFactor": 0.0,
        "roughnessFactor": 0.9
      }
    },
    {
      "doubleSided": false,
      "extensions": {
        "KHR_materials_unlit": {}
      },
      "extras": {
        "canonicalBaseColor": "#fde68aff",
        "nndvMaterial": {
          "base_color": "#fde68a",
          "face_colors": {
            "front": "#fde68a",
            "top": "#fde68a"
          },
          "metallic": 0.0,
          "opacity": 1.0,
          "roughness": 0.9,
          "stroke_color": "#334155",
          "stroke_width": 0.8,
          "unlit": true
        }
      },
      "name": "Material scene_object_scene_template_resnet_head_0c8d7514",
      "pbrMetallicRoughness": {
        "baseColorFactor": [
          0.9921569,
          0.9019608,
          0.5411765,
          1.0
        ],
        "metallicFactor": 0.0,
        "roughnessFactor": 0.9
      }
    },
    {
      "doubleSided": false,
      "extensions": {
        "KHR_materials_unlit": {}
      },
      "extras": {
        "canonicalBaseColor": "#bfdbfeff",
        "nndvMaterial": {
          "base_color": "#bfdbfe",
          "face_colors": {
            "front": "#bfdbfe",
            "top": "#bfdbfe"
          },
          "metallic": 0.0,
          "opacity": 1.0,
          "roughness": 0.9,
          "stroke_color": "#334155",
          "stroke_width": 0.8,
          "unlit": true
        }
      },
      "name": "Material scene_object_scene_template_resnet_input_cc064d5a",
      "pbrMetallicRoughness": {
        "baseColorFactor": [
          0.7490196,
          0.8588235,
          0.9960784,
          1.0
        ],
        "metallicFactor": 0.0,
        "roughnessFactor": 0.9
      }
    },
    {
      "doubleSided": false,
      "extensions": {
        "KHR_materials_unlit": {}
      },
      "extras": {
        "canonicalBaseColor": "#475569ff",
        "nndvMaterial": {
          "base_color": "#475569",
          "face_colors": {
            "front": "#475569",
            "top": "#475569"
          },
          "metallic": 0.0,
          "opacity": 1.0,
          "roughness": 0.9,
          "stroke_color": "#475569",
          "stroke_width": 0.8,
          "unlit": true
        }
      },
      "name": "Material scene_object_scene_template_resnet_main_0_63574ce6",
      "pbrMetallicRoughness": {
        "baseColorFactor": [
          0.2784314,
          0.3333333,
          0.4117647,
          1.0
        ],
        "metallicFactor": 0.0,
        "roughnessFactor": 0.9
      }
    },
    {
      "doubleSided": false,
      "extensions": {
        "KHR_materials_unlit": {}
      },
      "extras": {
        "canonicalBaseColor": "#ef4444ff",
        "nndvMaterial": {
          "base_color": "#ef4444",
          "face_colors": {
            "front": "#ef4444",
            "top": "#ef4444"
          },
          "metallic": 0.0,
          "opacity": 1.0,
          "roughness": 0.9,
          "stroke_color": "#ef4444",
          "stroke_width": 0.8,
          "unlit": true
        }
      },
      "name": "Material scene_object_scene_template_resnet_skip_1_b62cd7b4",
      "pbrMetallicRoughness": {
        "baseColorFactor": [
          0.9372549,
          0.2666667,
          0.2666667,
          1.0
        ],
        "metallicFactor": 0.0,
        "roughnessFactor": 0.9
      }
    }
  ],
  "meshes": [
    {
      "extras": {
        "objectId": "scene_object_scene_template_resnet_block_1_100d8293"
      },
      "name": "Mesh scene_object_scene_template_resnet_block_1_100d8293",
      "primitives": [
        {
          "attributes": {
            "POSITION": 0
          },
          "indices": 1,
          "material": 0,
          "mode": 4
        }
      ]
    },
    {
      "extras": {
        "objectId": "scene_object_scene_template_resnet_block_2_de9f3bdf"
      },
      "name": "Mesh scene_object_scene_template_resnet_block_2_de9f3bdf",
      "primitives": [
        {
          "attributes": {
            "POSITION": 2
          },
          "indices": 3,
          "material": 1,
          "mode": 4
        }
      ]
    },
    {
      "extras": {
        "objectId": "scene_object_scene_template_resnet_group_frame_ff5969bb"
      },
      "name": "Mesh scene_object_scene_template_resnet_group_frame_ff5969bb",
      "primitives": [
        {
          "attributes": {
            "POSITION": 4
          },
          "indices": 5,
          "material": 3,
          "mode": 4
        }
      ]
    },
    {
      "extras": {
        "objectId": "scene_object_scene_template_resnet_head_0c8d7514"
      },
      "name": "Mesh scene_object_scene_template_resnet_head_0c8d7514",
      "primitives": [
        {
          "attributes": {
            "POSITION": 6
          },
          "indices": 7,
          "material": 4,
          "mode": 4
        }
      ]
    },
    {
      "extras": {
        "objectId": "scene_object_scene_template_resnet_input_cc064d5a"
      },
      "name": "Mesh scene_object_scene_template_resnet_input_cc064d5a",
      "primitives": [
        {
          "attributes": {
            "POSITION": 8
          },
          "indices": 9,
          "material": 5,
          "mode": 4
        }
      ]
    },
    {
      "extras": {
        "objectId": "scene_object_scene_template_resnet_main_0_63574ce6"
      },
      "name": "Mesh scene_object_scene_template_resnet_main_0_63574ce6",
      "primitives": [
        {
          "attributes": {
            "POSITION": 10
          },
          "material": 6,
          "mode": 3
        },
        {
          "attributes": {
            "POSITION": 11
          },
          "indices": 12,
          "material": 6,
          "mode": 4
        }
      ]
    },
    {
      "extras": {
        "objectId": "scene_object_scene_template_resnet_main_1_484275b9"
      },
      "name": "Mesh scene_object_scene_template_resnet_main_1_484275b9",
      "primitives": [
        {
          "attributes": {
            "POSITION": 13
          },
          "material": 6,
          "mode": 3
        },
        {
          "attributes": {
            "POSITION": 14
          },
          "indices": 15,
          "material": 6,
          "mode": 4
        }
      ]
    },
    {
      "extras": {
        "objectId": "scene_object_scene_template_resnet_main_2_eda09cad"
      },
      "name": "Mesh scene_object_scene_template_resnet_main_2_eda09cad",
      "primitives": [
        {
          "attributes": {
            "POSITION": 16
          },
          "material": 6,
          "mode": 3
        },
        {
          "attributes": {
            "POSITION": 17
          },
          "indices": 18,
          "material": 6,
          "mode": 4
        }
      ]
    },
    {
      "extras": {
        "objectId": "scene_object_scene_template_resnet_main_3_213f050b"
      },
      "name": "Mesh scene_object_scene_template_resnet_main_3_213f050b",
      "primitives": [
        {
          "attributes": {
            "POSITION": 19
          },
          "material": 6,
          "mode": 3
        },
        {
          "attributes": {
            "POSITION": 20
          },
          "indices": 21,
          "material": 6,
          "mode": 4
        }
      ]
    },
    {
      "extras": {
        "objectId": "scene_object_scene_template_resnet_skip_1_b62cd7b4"
      },
      "name": "Mesh scene_object_scene_template_resnet_skip_1_b62cd7b4",
      "primitives": [
        {
          "attributes": {
            "POSITION": 22
          },
          "material": 7,
          "mode": 3
        },
        {
          "attributes": {
            "POSITION": 23
          },
          "indices": 24,
          "material": 7,
          "mode": 4
        }
      ]
    },
    {
      "extras": {
        "objectId": "scene_object_scene_template_resnet_skip_2_ea107baf"
      },
      "name": "Mesh scene_object_scene_template_resnet_skip_2_ea107baf",
      "primitives": [
        {
          "attributes": {
            "POSITION": 25
          },
          "material": 7,
          "mode": 3
        },
        {
          "attributes": {
            "POSITION": 26
          },
          "indices": 27,
          "material": 7,
          "mode": 4
        }
      ]
    },
    {
      "extras": {
        "objectId": "scene_object_scene_template_resnet_stem_e2bd9b26"
      },
      "name": "Mesh scene_object_scene_template_resnet_stem_e2bd9b26",
      "primitives": [
        {
          "attributes": {
            "POSITION": 28
          },
          "indices": 29,
          "material": 5,
          "mode": 4
        }
      ]
    }
  ],
  "nodes": [
    {
      "extras": {
        "kind": "operation-block",
        "locked": false,
        "objectId": "scene_object_scene_template_resnet_block_1_100d8293",
        "provenance": {
          "author_annotation": false,
          "evidence": {},
          "figure_ir_ids": [],
          "graph_ir_ids": [],
          "kind": "template",
          "reason": "Explicit editable Scene template; not model evidence.",
          "semantic_view_ids": [],
          "source_id": "scene-template:resnet:block-1"
        },
        "visible": true
      },
      "matrix": [
        1.0,
        0.0,
        0.0,
        0.0,
        0.0,
        1.0,
        0.0,
        0.0,
        0.0,
        0.0,
        1.0,
        0.0,
        -1.8,
        0.0,
        0.0,
        1.0
      ],
      "mesh": 0,
      "name": "Residual block 1"
    },
    {
      "extras": {
        "kind": "operation-block",
        "locked": false,
        "objectId": "scene_object_scene_template_resnet_block_2_de9f3bdf",
        "provenance": {
          "author_annotation": false,
          "evidence": {},
          "figure_ir_ids": [],
          "graph_ir_ids": [],
          "kind": "template",
          "reason": "Explicit editable Scene template; not model evidence.",
          "semantic_view_ids": [],
          "source_id": "scene-template:resnet:block-2"
        },
        "visible": true
      },
      "matrix": [
        1.0,
        0.0,
        0.0,
        0.0,
        0.0,
        1.0,
        0.0,
        0.0,
        0.0,
        0.0,
        1.0,
        0.0,
        1.8,
        0.0,
        0.0,
        1.0
      ],
      "mesh": 1,
      "name": "Residual block 2"
    },
    {
      "extras": {
        "geometry": {
          "center": [
            0.0,
            0.0,
            0.0
          ],
          "size": [
            10.0,
            0.5,
            0.2
          ],
          "text": "3D depth and thickness are editable visual mappings, not literal tensor dimensions."
        },
        "kind": "legend",
        "locked": false,
        "objectId": "scene_object_scene_template_resnet_geometry_legend_f43bf7f0",
        "provenance": {
          "author_annotation": false,
          "evidence": {},
          "figure_ir_ids": [],
          "graph_ir_ids": [],
          "kind": "template",
          "reason": "Explicit editable Scene template; not model evidence.",
          "semantic_view_ids": [],
          "source_id": "scene-template:resnet:geometry-legend"
        },
        "visible": true
      },
      "matrix": [
        1.0,
        0.0,
        0.0,
        0.0,
        0.0,
        1.0,
        0.0,
        0.0,
        0.0,
        0.0,
        1.0,
        0.0,
        0.0,
        -5.0,
        0.0,
        1.0
      ],
      "name": "Geometry mapping legend"
    },
    {
      "extras": {
        "kind": "group-frame",
        "locked": false,
        "objectId": "scene_object_scene_template_resnet_group_frame_ff5969bb",
        "provenance": {
          "author_annotation": false,
          "evidence": {},
          "figure_ir_ids": [],
          "graph_ir_ids": [],
          "kind": "template",
          "reason": "Explicit editable Scene template; not model evidence.",
          "semantic_view_ids": [],
          "source_id": "scene-template:resnet:group-frame"
        },
        "visible": true
      },
      "matrix": [
        1.0,
        0.0,
        0.0,
        0.0,
        0.0,
        1.0,
        0.0,
        0.0,
        0.0,
        0.0,
        1.0,
        0.0,
        0.0,
        0.0,
        0.0,
        1.0
      ],
      "mesh": 2,
      "name": "Architecture group frame"
    },
    {
      "extras": {
        "kind": "operation-block",
        "locked": false,
        "objectId": "scene_object_scene_template_resnet_head_0c8d7514",
        "provenance": {
          "author_annotation": false,
          "evidence": {},
          "figure_ir_ids": [],
          "graph_ir_ids": [],
          "kind": "template",
          "reason": "Explicit editable Scene template; not model evidence.",
          "semantic_view_ids": [],
          "source_id": "scene-template:resnet:head"
        },
        "visible": true
      },
      "matrix": [
        1.0,
        0.0,
        0.0,
        0.0,
        0.0,
        1.0,
        0.0,
        0.0,
        0.0,
        0.0,
        1.0,
        0.0,
        5.2,
        0.0,
        0.0,
        1.0
      ],
      "mesh": 3,
      "name": "Head"
    },
    {
      "extras": {
        "kind": "tensor-volume",
        "locked": false,
        "objectId": "scene_object_scene_template_resnet_input_cc064d5a",
        "provenance": {
          "author_annotation": false,
          "evidence": {},
          "figure_ir_ids": [],
          "graph_ir_ids": [],
          "kind": "template",
          "reason": "Explicit editable Scene template; not model evidence.",
          "semantic_view_ids": [],
          "source_id": "scene-template:resnet:input"
        },
        "visible": true
      },
      "matrix": [
        1.0,
        0.0,
        0.0,
        0.0,
        0.0,
        1.0,
        0.0,
        0.0,
        0.0,
        0.0,
        1.0,
        0.0,
        -7.0,
        0.0,
        0.0,
        1.0
      ],
      "mesh": 4,
      "name": "Input"
    },
    {
      "extras": {
        "kind": "arrow",
        "locked": false,
        "objectId": "scene_object_scene_template_resnet_main_0_63574ce6",
        "provenance": {
          "author_annotation": false,
          "evidence": {},
          "figure_ir_ids": [],
          "graph_ir_ids": [],
          "kind": "template",
          "reason": "Explicit editable Scene template; not model evidence.",
          "semantic_view_ids": [],
          "source_id": "scene-template:resnet:main-0"
        },
        "visible": true
      },
      "matrix": [
        1.0,
        0.0,
        0.0,
        0.0,
        0.0,
        1.0,
        0.0,
        0.0,
        0.0,
        0.0,
        1.0,
        0.0,
        0.0,
        0.0,
        0.0,
        1.0
      ],
      "mesh": 5,
      "name": "Residual main path"
    },
    {
      "extras": {
        "kind": "arrow",
        "locked": false,
        "objectId": "scene_object_scene_template_resnet_main_1_484275b9",
        "provenance": {
          "author_annotation": false,
          "evidence": {},
          "figure_ir_ids": [],
          "graph_ir_ids": [],
          "kind": "template",
          "reason": "Explicit editable Scene template; not model evidence.",
          "semantic_view_ids": [],
          "source_id": "scene-template:resnet:main-1"
        },
        "visible": true
      },
      "matrix": [
        1.0,
        0.0,
        0.0,
        0.0,
        0.0,
        1.0,
        0.0,
        0.0,
        0.0,
        0.0,
        1.0,
        0.0,
        0.0,
        0.0,
        0.0,
        1.0
      ],
      "mesh": 6,
      "name": "Residual main path"
    },
    {
      "extras": {
        "kind": "arrow",
        "locked": false,
        "objectId": "scene_object_scene_template_resnet_main_2_eda09cad",
        "provenance": {
          "author_annotation": false,
          "evidence": {},
          "figure_ir_ids": [],
          "graph_ir_ids": [],
          "kind": "template",
          "reason": "Explicit editable Scene template; not model evidence.",
          "semantic_view_ids": [],
          "source_id": "scene-template:resnet:main-2"
        },
        "visible": true
      },
      "matrix": [
        1.0,
        0.0,
        0.0,
        0.0,
        0.0,
        1.0,
        0.0,
        0.0,
        0.0,
        0.0,
        1.0,
        0.0,
        0.0,
        0.0,
        0.0,
        1.0
      ],
      "mesh": 7,
      "name": "Residual main path"
    },
    {
      "extras": {
        "kind": "arrow",
        "locked": false,
        "objectId": "scene_object_scene_template_resnet_main_3_213f050b",
        "provenance": {
          "author_annotation": false,
          "evidence": {},
          "figure_ir_ids": [],
          "graph_ir_ids": [],
          "kind": "template",
          "reason": "Explicit editable Scene template; not model evidence.",
          "semantic_view_ids": [],
          "source_id": "scene-template:resnet:main-3"
        },
        "visible": true
      },
      "matrix": [
        1.0,
        0.0,
        0.0,
        0.0,
        0.0,
        1.0,
        0.0,
        0.0,
        0.0,
        0.0,
        1.0,
        0.0,
        0.0,
        0.0,
        0.0,
        1.0
      ],
      "mesh": 8,
      "name": "Residual main path"
    },
    {
      "extras": {
        "kind": "residual-skip",
        "locked": false,
        "objectId": "scene_object_scene_template_resnet_skip_1_b62cd7b4",
        "provenance": {
          "author_annotation": false,
          "evidence": {},
          "figure_ir_ids": [],
          "graph_ir_ids": [],
          "kind": "template",
          "reason": "Explicit editable Scene template; not model evidence.",
          "semantic_view_ids": [],
          "source_id": "scene-template:resnet:skip-1"
        },
        "visible": true
      },
      "matrix": [
        1.0,
        0.0,
        0.0,
        0.0,
        0.0,
        1.0,
        0.0,
        0.0,
        0.0,
        0.0,
        1.0,
        0.0,
        0.0,
        0.0,
        0.0,
        1.0
      ],
      "mesh": 9,
      "name": "Residual skip 1"
    },
    {
      "extras": {
        "kind": "residual-skip",
        "locked": false,
        "objectId": "scene_object_scene_template_resnet_skip_2_ea107baf",
        "provenance": {
          "author_annotation": false,
          "evidence": {},
          "figure_ir_ids": [],
          "graph_ir_ids": [],
          "kind": "template",
          "reason": "Explicit editable Scene template; not model evidence.",
          "semantic_view_ids": [],
          "source_id": "scene-template:resnet:skip-2"
        },
        "visible": true
      },
      "matrix": [
        1.0,
        0.0,
        0.0,
        0.0,
        0.0,
        1.0,
        0.0,
        0.0,
        0.0,
        0.0,
        1.0,
        0.0,
        0.0,
        0.0,
        0.0,
        1.0
      ],
      "mesh": 10,
      "name": "Residual skip 2"
    },
    {
      "extras": {
        "kind": "operation-block",
        "locked": false,
        "objectId": "scene_object_scene_template_resnet_stem_e2bd9b26",
        "provenance": {
          "author_annotation": false,
          "evidence": {},
          "figure_ir_ids": [],
          "graph_ir_ids": [],
          "kind": "template",
          "reason": "Explicit editable Scene template; not model evidence.",
          "semantic_view_ids": [],
          "source_id": "scene-template:resnet:stem"
        },
        "visible": true
      },
      "matrix": [
        1.0,
        0.0,
        0.0,
        0.0,
        0.0,
        1.0,
        0.0,
        0.0,
        0.0,
        0.0,
        1.0,
        0.0,
        -4.8,
        0.0,
        0.0,
        1.0
      ],
      "mesh": 11,
      "name": "Stem"
    },
    {
      "camera": 0,
      "extras": {
        "kind": "camera",
        "objectId": "scene_camera_resnet_editable_3d_template_camera_isometr_3eb6511c"
      },
      "matrix": [
        0.759256602,
        0.0,
        -0.650791373,
        0.0,
        -0.310252614,
        0.879049073,
        -0.361961383,
        0.0,
        0.572077554,
        0.476731295,
        0.667423812,
        0.0,
        12.0,
        10.0,
        14.0,
        1.0
      ],
      "name": "resnet editable 3D template isometric camera"
    },
    {
      "extensions": {
        "KHR_lights_punctual": {
          "light": 0
        }
      },
      "extras": {
        "kind": "light",
        "objectId": "scene_light_resnet_editable_3d_template_light_key_cffd5278"
      },
      "name": "Key light",
      "translation": [
        8.0,
        10.0,
        12.0
      ]
    }
  ],
  "scene": 0,
  "scenes": [
    {
      "extras": {
        "activeCameraId": "scene_camera_resnet_editable_3d_template_camera_isometr_3eb6511c",
        "sceneId": "scene_resnet_editable_3d_template_d3a6b46b",
        "sourceDigest": "6933eb719324050ba157eabfdba95718cad53d4f1c3a63dd2a038f7969c7ec35"
      },
      "name": "resnet editable 3D template",
      "nodes": [
        0,
        1,
        2,
        3,
        4,
        5,
        6,
        7,
        8,
        9,
        10,
        11,
        12,
        13,
        14
      ]
    }
  ]
}
